<?xml version="1.0" encoding="utf-8"?>
<!-- Generator: Adobe Illustrator 25.4.1, SVG Export Plug-In . SVG Version: 6.00 Build 0)  -->
<svg version="1.1" id="Capa_1" xmlns="http://www.w3.org/2000/svg" xmlns:xlink="http://www.w3.org/1999/xlink" x="0px" y="0px"
	 viewBox="0 0 1920 1080" style="enable-background:new 0 0 1920 1080;" xml:space="preserve">
<style type="text/css">
	.st0{fill:#005B7F;}
	.st1{fill:#008196;}
	.st2{fill:#33A2C4;}
	.st3{fill:#6B6B6B;}
</style>
<g>
	<path class="st0" d="M87.1,717.9c33.1-33.2,71-62,111.7-86.3c40.9-24,84.6-43.2,129.5-58.7c44.9-15.6,91.4-26.8,138.4-34.8
		c23.5-3.9,47.2-6.8,71.1-9.1c23.9-1.8,48.1-3.1,72.3-2.5c48.4,0.7,96.3,7.2,142.8,16c46.6,8.6,92.2,18.8,137.8,28.5L959,585
		l34.2,6.9l34.3,6.4l34.3,6.2l34.3,5.6c22.9,3.7,45.7,7,68.5,10.1l34.2,4.3c11.4,1.2,22.8,2.6,34.2,3.6c22.7,2.4,45.4,4.2,68,5.7
		c45.2,3,90.2,3.9,135.2,2.9c11.2-0.2,22.6-0.8,33.7-1.2c10.9-0.6,21.9-1.2,32.7-2.4c21.7-2.3,43.4-5.5,64.6-10.4
		c42.3-9.4,83.7-24.3,118.1-47.4c17-11.7,31.9-25.7,42.2-42.1c5.1-8.2,9-17,11.4-26.2c2.4-9.3,3.3-19.1,2.5-28.9
		c-1.5-19.6-9.7-39.4-22.8-56.5c-13-17.2-30.2-32.1-49.2-44.4c-19-12.5-39.9-22.2-61.5-30.3c-21.7-8-44.1-14.4-66.8-19
		c-22.8-4.7-45.9-8-69.1-9.8c-23.9-1.5-69.9,0.1-69.9,0.1s46.6-3,70-1.6c23.3,1.2,46.6,3.3,69.8,6.7c23.2,3.4,46.3,8.1,69,14.4
		c22.7,6.3,45.2,14.3,66.7,25.2c21.5,10.8,42.1,24.3,59.8,42.3c17.8,17.7,32.1,40.9,37.9,67.5c2.9,13.3,3.6,27,2.1,40.8
		c-1.5,13.8-5.3,27.3-10.9,39.8c-11.2,25.2-28.9,46-48.2,63.4c-19.5,17.4-41.1,31.5-63.6,43.1c-11.2,5.9-22.7,11.2-34.4,15.8
		c-11.6,4.8-23.5,8.9-35.4,12.7c-23.9,7.3-48.1,13.2-72.7,17c-12.2,2-24.6,3.5-36.9,4.8c-12.1,1-24.1,2-36.1,2.7
		c-48.2,2.7-96.8,1.6-144.6-3.4l-17.9-1.8l-17.8-2.3c-11.9-1.5-23.7-3.4-35.5-5.1c-11.8-1.8-23.5-4.1-35.2-6.1l-34.9-6.7
		c-23.2-4.7-46.3-9.6-69.3-14.6l-68.8-15.3l-68.6-15.5l-68.4-15.7c-45.6-10.4-90.9-21.1-136-30.6l-16.9-3.5l-16.8-3.2
		c-11.2-2.3-22.4-4-33.6-6c-22.4-3.4-44.7-6.6-67.2-8c-22.4-2-45-2.1-67.7-1.9c-11.3,0.6-22.7,0.7-34.1,1.6
		c-11.4,0.9-22.8,1.6-34.2,2.8c-45.5,4.4-90.7,12.5-135.2,23.7c-44.4,11.4-88,26.5-129.5,46.4c-20.8,9.9-41.1,20.9-60.7,33.2
		c-19.6,12.3-38.5,25.8-56.7,40.3L87.1,717.9z"/>
	<path class="st1" d="M279.5,703.3c50.8-55.7,124.4-84.6,197.5-96.8c77.2-12.9,163.6-5.3,235.8,25.9c35.2,15.3,68.1,33.8,97.1,59.3
		c-29.1-5.5-57.5-14-86.6-19.1c-36.7-6.3-73.5-12.2-110.7-14.2c-76.7-4-154.4-1.6-229.6,15.1C347.5,681.4,314,692.6,279.5,703.3z"/>
	<g>
		<path class="st2" d="M513.6,494.4c-2.5,3.7-5.5,7.2-9.2,10.5c-3.6,3.3-7.8,6.2-12.5,8.6c-4.7,2.4-9.7,4.3-15.2,5.7
			c-5.4,1.4-11.2,2.1-17.2,2.1c-10.9,0-20.9-1.9-30.2-5.8c-9.3-3.9-17.3-9.2-24.1-16c-6.8-6.8-12.1-14.9-16-24.2
			c-3.9-9.4-5.8-19.6-5.8-30.7s1.9-21.4,5.8-30.7c3.8-9.4,9.2-17.4,16-24.2c6.8-6.8,14.9-12.1,24.1-16c9.3-3.9,19.4-5.8,30.2-5.8
			c9.1,0,18.2,1.8,27.2,5.4c9.1,3.6,16.8,9.5,23.3,17.7l-13,9.7c-1.5-2.3-3.6-4.7-6.2-7c-2.6-2.3-5.6-4.4-9-6.2
			c-3.4-1.8-7-3.2-10.8-4.3c-3.9-1.1-7.7-1.7-11.6-1.7c-9.4,0-17.7,1.7-25.2,5.2c-7.4,3.4-13.7,8-18.9,13.8
			c-5.2,5.8-9.1,12.5-11.9,20.1c-2.8,7.6-4.1,15.6-4.1,24c0,8.4,1.4,16.4,4.1,24c2.8,7.6,6.7,14.3,11.9,20.1
			c5.2,5.8,11.4,10.4,18.9,13.8c7.4,3.4,15.8,5.2,25.2,5.2c3.8,0,7.7-0.3,11.4-1c3.8-0.7,7.5-1.9,11.1-3.5c3.6-1.6,7.1-3.9,10.3-6.7
			c3.2-2.8,6.2-6.4,9-10.6L513.6,494.4z"/>
		<path class="st2" d="M594.7,503.9h68.1v13.6h-82.9v-146h14.9V503.9z"/>
		<path class="st2" d="M739.1,503.9h78.2v13.6h-93v-146h90.6v13.6h-75.7v49.7h70.8v13.6h-70.8V503.9z"/>
		<path class="st2" d="M885.3,517.6H868l63.5-146H946l63.5,146h-17.3l-16.1-38.4h-74.7L885.3,517.6z M907,465.6h63.3l-31.6-76.7
			L907,465.6z"/>
		<path class="st2" d="M1176.2,495.3h0.4V371.5h14.9v146h-18.6l-87-125h-0.4v125h-14.9v-146h18.6L1176.2,495.3z"/>
		<path class="st0" d="M1475.2,463.1c0,6-0.7,12.5-2.2,19.3c-1.4,6.8-4.2,13.1-8.1,18.9c-4,5.8-9.5,10.6-16.4,14.3
			c-6.9,3.8-15.9,5.7-26.7,5.7c-11,0-19.9-1.9-26.8-5.7c-6.9-3.8-12.3-8.6-16.3-14.3c-4-5.8-6.7-12.1-8.1-18.9
			c-1.4-6.8-2.2-13.2-2.2-19.3v-91.6h14.9v89.9c0,7,0.7,13,2.1,18c1.4,5,3.2,9.2,5.5,12.7c2.3,3.4,4.8,6.2,7.6,8.1
			c2.8,2,5.6,3.5,8.5,4.6c2.8,1.1,5.5,1.8,8.1,2.2c2.6,0.3,4.9,0.5,6.8,0.5c1.8,0,4-0.2,6.7-0.5c2.7-0.3,5.4-1.1,8.3-2.2
			c2.8-1.1,5.6-2.6,8.5-4.6c2.8-2,5.4-4.7,7.6-8.1c2.3-3.4,4.1-7.7,5.5-12.7c1.4-5,2.1-11,2.1-18v-89.9h14.9V463.1z"/>
		<path class="st0" d="M1553.6,371.5h42.5c14.9,0,26.6,3.2,35.2,9.7c8.6,6.5,12.9,16.2,12.9,29.3c0,13.1-4.3,22.9-12.9,29.4
			c-8.6,6.5-20.3,9.8-35.2,9.8h-27.6v67.9h-14.9V371.5z M1568.5,436.1h23.9c6.6,0,12.2-0.7,16.8-2.1c4.6-1.4,8.3-3.2,11-5.5
			c2.8-2.3,4.7-5,6-8c1.2-3.1,1.9-6.4,1.9-10c0-3.4-0.6-6.7-1.9-9.8c-1.2-3.1-3.2-5.8-6-8.1c-2.8-2.3-6.4-4.2-11-5.5
			c-4.6-1.3-10.2-2-16.8-2h-23.9V436.1z"/>
	</g>
	<g>
		<path class="st3" d="M986.8,550.4c-1.6-2.4-4-3.6-7.1-3.6c-1,0-1.9,0.1-2.9,0.4c-0.9,0.3-1.8,0.7-2.5,1.2
			c-0.7,0.5-1.3,1.2-1.8,2.1c-0.5,0.9-0.7,1.9-0.7,3c0,1.7,0.5,3,1.4,3.9c0.9,0.9,2.1,1.7,3.5,2.3c1.4,0.6,2.9,1.1,4.6,1.6
			c1.7,0.5,3.2,1.1,4.6,1.9c1.4,0.8,2.6,1.8,3.5,3.1s1.4,3,1.4,5.3c0,1.7-0.4,3.2-1.1,4.5c-0.7,1.3-1.7,2.5-2.8,3.4
			c-1.2,0.9-2.5,1.6-3.9,2.1c-1.4,0.5-2.9,0.7-4.4,0.7c-2.3,0-4.4-0.4-6.4-1.3c-2-0.9-3.8-2.3-5.2-4.2l3.4-2.4
			c0.8,1.4,1.9,2.4,3.3,3.3c1.4,0.8,3.1,1.2,5,1.2c0.9,0,1.9-0.1,2.8-0.4c0.9-0.3,1.8-0.7,2.5-1.3c0.7-0.6,1.4-1.3,1.8-2.1
			c0.5-0.8,0.7-1.8,0.7-2.9c0-1.3-0.3-2.4-0.8-3.2c-0.5-0.9-1.3-1.6-2.1-2.1c-0.9-0.6-1.9-1.1-3-1.4c-1.1-0.4-2.3-0.8-3.5-1.1
			c-1.2-0.4-2.4-0.8-3.5-1.3c-1.1-0.5-2.1-1.1-3-1.9c-0.9-0.7-1.6-1.7-2.1-2.8c-0.5-1.1-0.8-2.5-0.8-4.2c0-1.8,0.3-3.3,1-4.6
			c0.7-1.3,1.6-2.4,2.7-3.3c1.1-0.9,2.4-1.5,3.8-1.9c1.4-0.4,2.9-0.6,4.4-0.6c2.1,0,4,0.3,5.7,1c1.7,0.7,3.3,1.8,4.7,3.5
			L986.8,550.4z"/>
		<path class="st3" d="M1006,577.8h19.8v3.4h-23.5v-36.9h22.9v3.4H1006v12.6h17.9v3.4H1006V577.8z"/>
		<path class="st3" d="M1040.8,581.2h-3.8v-36.9h11.4c3.8,0,6.7,0.8,8.9,2.4c2.2,1.6,3.3,4.1,3.3,7.4c0,2.6-0.8,4.7-2.4,6.5
			c-1.6,1.8-4,2.8-7,3.1l10.6,17.5h-4.6l-10.1-17.2h-6.3V581.2z M1040.8,560.6h6.7c1.7,0,3.1-0.2,4.2-0.5c1.2-0.3,2.1-0.8,2.8-1.4
			c0.7-0.6,1.2-1.3,1.5-2s0.5-1.6,0.5-2.5c0-0.9-0.2-1.7-0.5-2.5c-0.3-0.8-0.8-1.5-1.5-2.1c-0.7-0.6-1.6-1-2.8-1.4
			c-1.2-0.3-2.6-0.5-4.2-0.5h-6.7V560.6z"/>
		<path class="st3" d="M1083,575.6h0.1l12.1-31.3h4.1l-14.4,36.9h-3.8l-14-36.9h4.2L1083,575.6z"/>
		<path class="st3" d="M1111.8,581.2h-3.8v-36.9h3.8V581.2z"/>
		<path class="st3" d="M1156.1,575.4c-0.6,0.9-1.4,1.8-2.3,2.7c-0.9,0.8-2,1.6-3.2,2.2c-1.2,0.6-2.5,1.1-3.8,1.4
			c-1.4,0.3-2.8,0.5-4.4,0.5c-2.7,0-5.3-0.5-7.6-1.5s-4.4-2.3-6.1-4c-1.7-1.7-3.1-3.8-4-6.1c-1-2.4-1.5-5-1.5-7.8
			c0-2.8,0.5-5.4,1.5-7.8c1-2.4,2.3-4.4,4-6.1c1.7-1.7,3.8-3.1,6.1-4c2.3-1,4.9-1.5,7.6-1.5c2.3,0,4.6,0.5,6.9,1.4s4.3,2.4,5.9,4.5
			l-3.3,2.4c-0.4-0.6-0.9-1.2-1.6-1.8c-0.7-0.6-1.4-1.1-2.3-1.6c-0.9-0.5-1.8-0.8-2.7-1.1c-1-0.3-1.9-0.4-2.9-0.4
			c-2.4,0-4.5,0.4-6.4,1.3c-1.9,0.9-3.5,2-4.8,3.5c-1.3,1.5-2.3,3.2-3,5.1c-0.7,1.9-1,4-1,6.1c0,2.1,0.3,4.1,1,6.1
			c0.7,1.9,1.7,3.6,3,5.1c1.3,1.5,2.9,2.6,4.8,3.5c1.9,0.9,4,1.3,6.4,1.3c1,0,1.9-0.1,2.9-0.3c1-0.2,1.9-0.5,2.8-0.9
			c0.9-0.4,1.8-1,2.6-1.7c0.8-0.7,1.6-1.6,2.3-2.7L1156.1,575.4z"/>
		<path class="st3" d="M1170.1,581.2h-3.8v-36.9h3.8V581.2z"/>
		<path class="st3" d="M1220,562.8c0,2.8-0.5,5.4-1.5,7.8c-1,2.4-2.3,4.4-4,6.1c-1.7,1.7-3.8,3.1-6.1,4c-2.3,1-4.9,1.5-7.6,1.5
			s-5.3-0.5-7.6-1.5s-4.4-2.3-6.1-4c-1.7-1.7-3.1-3.8-4-6.1c-1-2.4-1.5-5-1.5-7.8c0-2.8,0.5-5.4,1.5-7.8c1-2.4,2.3-4.4,4-6.1
			c1.7-1.7,3.8-3.1,6.1-4c2.3-1,4.9-1.5,7.6-1.5s5.3,0.5,7.6,1.5c2.3,1,4.4,2.3,6.1,4c1.7,1.7,3.1,3.8,4,6.1
			C1219.5,557.4,1220,559.9,1220,562.8z M1215.9,562.8c0-2.1-0.3-4.1-1-6.1c-0.7-1.9-1.7-3.6-3-5.1c-1.3-1.5-2.9-2.6-4.8-3.5
			c-1.9-0.9-4-1.3-6.4-1.3c-2.4,0-4.5,0.4-6.4,1.3c-1.9,0.9-3.5,2-4.8,3.5c-1.3,1.5-2.3,3.2-3,5.1c-0.7,1.9-1,4-1,6.1
			c0,2.1,0.3,4.1,1,6.1c0.7,1.9,1.7,3.6,3,5.1c1.3,1.5,2.9,2.6,4.8,3.5c1.9,0.9,4,1.3,6.4,1.3c2.4,0,4.5-0.4,6.4-1.3
			c1.9-0.9,3.5-2,4.8-3.5c1.3-1.5,2.3-3.2,3-5.1C1215.5,566.9,1215.9,564.9,1215.9,562.8z"/>
		<path class="st3" d="M1248.8,550.4c-1.6-2.4-4-3.6-7.1-3.6c-1,0-1.9,0.1-2.9,0.4c-0.9,0.3-1.8,0.7-2.5,1.2
			c-0.7,0.5-1.3,1.2-1.8,2.1c-0.5,0.9-0.7,1.9-0.7,3c0,1.7,0.5,3,1.4,3.9c0.9,0.9,2.1,1.7,3.5,2.3c1.4,0.6,2.9,1.1,4.6,1.6
			c1.7,0.5,3.2,1.1,4.6,1.9c1.4,0.8,2.6,1.8,3.5,3.1s1.4,3,1.4,5.3c0,1.7-0.4,3.2-1.1,4.5c-0.7,1.3-1.7,2.5-2.8,3.4
			c-1.2,0.9-2.5,1.6-3.9,2.1c-1.4,0.5-2.9,0.7-4.4,0.7c-2.3,0-4.4-0.4-6.4-1.3c-2-0.9-3.8-2.3-5.2-4.2l3.4-2.4
			c0.8,1.4,1.9,2.4,3.3,3.3c1.4,0.8,3.1,1.2,5,1.2c0.9,0,1.9-0.1,2.8-0.4c0.9-0.3,1.8-0.7,2.5-1.3c0.7-0.6,1.4-1.3,1.8-2.1
			c0.5-0.8,0.7-1.8,0.7-2.9c0-1.3-0.3-2.4-0.8-3.2c-0.5-0.9-1.3-1.6-2.1-2.1c-0.9-0.6-1.9-1.1-3-1.4c-1.1-0.4-2.3-0.8-3.5-1.1
			c-1.2-0.4-2.4-0.8-3.5-1.3c-1.1-0.5-2.1-1.1-3-1.9c-0.9-0.7-1.6-1.7-2.1-2.8s-0.8-2.5-0.8-4.2c0-1.8,0.3-3.3,1-4.6
			c0.7-1.3,1.6-2.4,2.7-3.3c1.1-0.9,2.4-1.5,3.8-1.9c1.4-0.4,2.9-0.6,4.4-0.6c2.1,0,4,0.3,5.7,1c1.7,0.7,3.3,1.8,4.7,3.5
			L1248.8,550.4z"/>
		<path class="st3" d="M1286.4,581.2h-3.8v-36.9h3.8V581.2z"/>
		<path class="st3" d="M1327.1,575.6h0.1v-31.3h3.8v36.9h-4.7l-22-31.6h-0.1v31.6h-3.8v-36.9h4.7L1327.1,575.6z"/>
		<path class="st3" d="M1356.7,581.2h-3.8v-33.5h-12.4v-3.4h28.5v3.4h-12.4V581.2z"/>
		<path class="st3" d="M1382.4,577.8h19.8v3.4h-23.5v-36.9h22.9v3.4h-19.1v12.6h17.9v3.4h-17.9V577.8z"/>
		<path class="st3" d="M1440.8,551.1c-1.3-1.3-2.7-2.4-4.5-3.1c-1.7-0.8-3.8-1.2-6-1.2c-2.4,0-4.5,0.4-6.4,1.3
			c-1.9,0.9-3.5,2-4.8,3.5c-1.3,1.5-2.3,3.2-3,5.1c-0.7,1.9-1,4-1,6.1c0,2.1,0.3,4.1,1,6.1c0.7,1.9,1.7,3.6,3,5.1s2.9,2.6,4.8,3.5
			s4,1.3,6.4,1.3c1.9,0,3.7-0.2,5.5-0.7c1.8-0.5,3.3-1.1,4.7-1.9v-12.4h-8.8v-3.4h12.6v18.1c-2.1,1.2-4.4,2.1-6.9,2.8
			c-2.5,0.6-4.9,1-7.1,1c-2.7,0-5.3-0.5-7.6-1.5c-2.3-1-4.4-2.3-6.1-4c-1.7-1.7-3.1-3.8-4-6.1c-1-2.4-1.5-5-1.5-7.8
			c0-2.8,0.5-5.4,1.5-7.8c1-2.4,2.3-4.4,4-6.1c1.7-1.7,3.8-3.1,6.1-4c2.3-1,4.9-1.5,7.6-1.5c3,0,5.5,0.4,7.6,1.2
			c2.1,0.8,4,2.1,5.7,3.7L1440.8,551.1z"/>
		<path class="st3" d="M1461.8,581.2h-3.8v-36.9h11.4c3.8,0,6.7,0.8,8.9,2.4c2.2,1.6,3.3,4.1,3.3,7.4c0,2.6-0.8,4.7-2.4,6.5
			c-1.6,1.8-4,2.8-7,3.1l10.6,17.5h-4.6l-10.1-17.2h-6.3V581.2z M1461.8,560.6h6.7c1.7,0,3.1-0.2,4.2-0.5c1.2-0.3,2.1-0.8,2.8-1.4
			c0.7-0.6,1.2-1.3,1.5-2c0.3-0.8,0.5-1.6,0.5-2.5c0-0.9-0.2-1.7-0.5-2.5c-0.3-0.8-0.8-1.5-1.5-2.1c-0.7-0.6-1.6-1-2.8-1.4
			c-1.2-0.3-2.6-0.5-4.2-0.5h-6.7V560.6z"/>
		<path class="st3" d="M1492.2,581.2h-4.4l16.1-36.9h3.7l16.1,36.9h-4.4l-4.1-9.7h-18.9L1492.2,581.2z M1497.7,568.1h16l-8-19.4
			L1497.7,568.1z"/>
		<path class="st3" d="M1536.3,577.8h17.2v3.4h-21v-36.9h3.8V577.8z"/>
		<path class="st3" d="M1566.3,577.8h19.8v3.4h-23.5v-36.9h22.9v3.4h-19.1v12.6h17.9v3.4h-17.9V577.8z"/>
		<path class="st3" d="M1614.8,550.4c-1.6-2.4-4-3.6-7.1-3.6c-1,0-1.9,0.1-2.9,0.4c-0.9,0.3-1.8,0.7-2.5,1.2
			c-0.7,0.5-1.3,1.2-1.8,2.1c-0.5,0.9-0.7,1.9-0.7,3c0,1.7,0.5,3,1.4,3.9c0.9,0.9,2.1,1.7,3.5,2.3c1.4,0.6,2.9,1.1,4.6,1.6
			c1.7,0.5,3.2,1.1,4.6,1.9c1.4,0.8,2.6,1.8,3.5,3.1s1.4,3,1.4,5.3c0,1.7-0.4,3.2-1.1,4.5c-0.7,1.3-1.7,2.5-2.8,3.4
			c-1.2,0.9-2.5,1.6-3.9,2.1c-1.4,0.5-2.9,0.7-4.4,0.7c-2.3,0-4.4-0.4-6.4-1.3c-2-0.9-3.8-2.3-5.2-4.2l3.4-2.4
			c0.8,1.4,1.9,2.4,3.3,3.3c1.4,0.8,3.1,1.2,5,1.2c0.9,0,1.9-0.1,2.8-0.4c0.9-0.3,1.8-0.7,2.5-1.3c0.7-0.6,1.4-1.3,1.8-2.1
			c0.5-0.8,0.7-1.8,0.7-2.9c0-1.3-0.3-2.4-0.8-3.2c-0.5-0.9-1.3-1.6-2.1-2.1c-0.9-0.6-1.9-1.1-3-1.4c-1.1-0.4-2.3-0.8-3.5-1.1
			c-1.2-0.4-2.4-0.8-3.5-1.3c-1.1-0.5-2.1-1.1-3-1.9c-0.9-0.7-1.6-1.7-2.1-2.8s-0.8-2.5-0.8-4.2c0-1.8,0.3-3.3,1-4.6
			c0.7-1.3,1.6-2.4,2.7-3.3c1.1-0.9,2.4-1.5,3.8-1.9c1.4-0.4,2.9-0.6,4.4-0.6c2.1,0,4,0.3,5.7,1c1.7,0.7,3.3,1.8,4.7,3.5
			L1614.8,550.4z"/>
	</g>
	<path class="st2" d="M967.4,671.8c76.2,24.1,154.4,41,233,53.3l29.6,4.1l14.8,2l14.8,1.5l29.6,3.3l29.7,2.3c19.8,1.9,39.6,2,59.5,3
		c9.9,0.6,19.8,0.4,29.7,0.5l29.7,0.1l29.7-1.2l14.8-0.6l7.4-0.3l7.4-0.5l14.7-1.1c2.5-0.2,4.9-0.3,7.4-0.6l7.3-0.8
		c9.8-1.2,19.6-2.1,29.3-3.8l14.6-2.2l14.4-2.8c9.7-1.6,19.1-4.2,28.7-6.4c4.8-1.2,9.4-2.6,14.1-3.9l7.1-2c2.4-0.7,4.6-1.5,7-2.3
		l13.9-4.7l13.6-5.3c18.1-7.3,35.7-15.8,52.3-26c16.6-10.2,32.3-21.8,46.4-35.3c14.1-13.5,27-28.3,37.4-45
		c5.3-8.3,10.1-16.9,14.2-25.9c4.1-9,7.6-18.3,9.9-27.8l2.5,0.3c-2.4,20.3-9.7,39.6-19,57.7c-9.5,18.1-21.6,34.9-35.5,50
		c-14,15-29.7,28.5-46.7,40.1c-17,11.5-35.1,21.4-53.8,29.9l-14.2,6l-14.4,5.3c-2.4,0.9-4.8,1.8-7.2,2.6l-7.3,2.3
		c-4.9,1.5-9.7,3.2-14.7,4.5c-9.9,2.5-19.7,5.5-29.7,7.4l-15,3.1l-15.1,2.5c-5,0.8-10,1.8-15.1,2.3l-15.1,1.8l-7.6,0.9
		c-2.5,0.3-5.1,0.4-7.6,0.6l-15.2,1.2c-2.5,0.2-5.1,0.4-7.6,0.6l-7.6,0.3l-15.2,0.5l-30.3,1l-30.3-0.3c-10.1-0.2-20.2,0-30.3-0.7
		l-30.2-1.7c-10.1-0.4-20.1-1.6-30.2-2.5l-30.1-3l-30-4l-15-2.1l-14.9-2.6l-29.8-5.2l-29.6-6c-9.9-1.9-19.6-4.5-29.4-6.7l-14.7-3.5
		c-4.9-1.1-9.7-2.5-14.6-3.8c-9.7-2.6-19.5-5-29.1-8c-19.3-5.7-38.5-11.5-57.5-18.2c-19-6.5-37.8-13.7-56.2-21.7L967.4,671.8z"/>
</g>
</svg>
